<?xml version="1.0" encoding="utf-8"?>
<!-- Generator: Adobe Illustrator 19.0.0, SVG Export Plug-In . SVG Version: 6.00 Build 0)  -->
<svg version="1.1" id="Layer_1" xmlns="http://www.w3.org/2000/svg" xmlns:xlink="http://www.w3.org/1999/xlink" x="0px" y="0px"
	 viewBox="0 0 300 120" style="enable-background:new 0 0 300 120;" xml:space="preserve">
<style type="text/css">
	.st0{fill:#33006F;}
</style>
<polygon id="XMLID_1_" class="st0" points="5,10 5,28.3 16.6,28.3 36.9,110 65.4,110 79,58.9 92,110 120.5,110 142,28.3 153,28.3 
	153,10 113.7,10 113.7,28.3 126.7,28.3 112.6,81.5 95.1,10 77,10 57.8,82 44,28.3 58.1,28.3 58.1,10 "/>
<polygon id="XMLID_11_" class="st0" points="189,110 189,99 182.6,105.5 164.3,105.5 164.3,80.3 177.9,80.3 182.7,85.1 182.7,71.1 
	177.9,75.8 164.3,75.8 164.3,54.5 182.6,54.5 189,60.9 189,50 153,50 157.7,54.8 157.7,105.2 153,110 "/>
<polygon id="XMLID_5_" class="st0" points="216.4,54.8 221.2,50 205,50 209.8,54.8 209.8,105.2 205.1,110 241,110 241,99 
	234.6,105.5 216.4,105.5 "/>
<path id="XMLID_8_" class="st0" d="M275.6,50H257l4.7,4.8v50.4L257,110H273l-4.8-4.8V82h9c7.8,0,17.7-5.3,17.7-15.5
	S285.5,50,275.6,50z M275.6,77.6h-7.3V54.5h7.3c6.4,0,11.5,5.5,11.5,12C287.1,72.7,281.9,77.6,275.6,77.6z"/>
</svg>
